<?xml version="1.0" encoding="utf-8"?>
<svg version="1.1" focusable="false"
	 xmlns="http://www.w3.org/2000/svg" xmlns:xlink="http://www.w3.org/1999/xlink" x="0px" y="0px" viewBox="0 0 640 512"
	 style="enable-background:new 0 0 640 512;" xml:space="preserve">
<path d="M225,209.8c0,44.4,36,80.3,80.3,80.3h230.9c49.9,0,90.4-40.5,90.4-90.4c0-39.4-25.2-72.9-60.4-85.3c0.1-1.7,0.1-3.4,0.1-5.1
	C566.3,53.9,521.4,9,465.9,9c-37.2,0-69.6,20.2-87,50.3c-9.5-6.4-21.1-10.2-33.4-10.2c-33.3,0-60.2,27-60.2,60.2
	c0,7.7,1.4,15,4,21.7C252.6,138.5,225,170.9,225,209.8z"/>
<path fill='white' d="M484.8,251.5c3.7-9.6,5.8-20.2,5.8-31.2c0-47.8-38.8-86.6-86.6-86.6c-17.8,0-34.4,5.4-48.1,14.6
	C331,105,284.3,76,230.9,76c-79.7,0-144.3,64.6-144.3,144.3c0,2.4,0.1,4.9,0.2,7.3C36.3,245.4,0,293.5,0,350.1
	C0,421.8,58.2,480,129.9,480h331.9c63.8,0,115.4-51.7,115.4-115.4C577.1,308.8,537.5,262.1,484.8,251.5z"/>
</svg>
