<svg height="512pt" viewBox="0 -5 512.001 512" width="512pt" xmlns="http://www.w3.org/2000/svg"><path fill='#ec6e4c' d="m343.851562 124.242188h-124.527343l-41.5625 192.375h32.769531l-36.046875 185.042968 185.410156-275.21875h-57.046875zm0 0"/><path fill='white' d="m195.066406 94.183594h192.933594c-8.402344-24.085938-23.359375-45.707032-43.238281-62.121094-25.039063-20.675781-56.738281-32.0625-89.261719-32.0625-47.777344 0-91.734375 24.097656-117.511719 63.648438-9.027343-2.347657-18.320312-3.53125-27.773437-3.53125-60.773438 0-110.214844 49.441406-110.214844 110.214843 0 60.773438 49.441406 110.214844 110.214844 110.214844 16.453125 0 32.359375-3.609375 46.835937-10.414063zm0 0"/><path fill='white' d="m416.8125 90.175781c-9.742188 0-19.425781 1.507813-28.664062 4.417969 0-.003906-.003907-.011719-.003907-.015625l-40.847656 101.804687h69.089844l-47.808594 70.96875c14.410156 8.484376 31.03125 13.195313 48.238281 13.195313 52.484375 0 95.183594-42.699219 95.183594-95.183594s-42.699219-95.1875-95.1875-95.1875zm0 0"/></svg>